<?xml version="1.0" standalone="no"?>
<!DOCTYPE svg PUBLIC "-//W3C//DTD SVG 20010904//EN"
 "http://www.w3.org/TR/2001/REC-SVG-20010904/DTD/svg10.dtd">
<svg version="1.0" xmlns="http://www.w3.org/2000/svg"
 width="234.000000pt" height="234.000000pt" viewBox="0 0 234.000000 234.000000"
 preserveAspectRatio="xMidYMid meet">
<metadata>
Created by potrace 1.14, written by Peter Selinger 2001-2017
</metadata>
<g transform="translate(0.000000,234.000000) scale(0.100000,-0.100000)"
fill="#000000" stroke="none">
<path d="M50 1170 l0 -1170 1120 0 1120 0 0 1170 0 1170 -1120 0 -1120 0 0
-1170z m1870 -25 l0 -555 -720 0 -720 0 0 555 0 555 720 0 720 0 0 -555z"/>
<path d="M522 1148 l3 -513 675 0 675 0 3 513 2 512 -680 0 -680 0 2 -512z
m663 179 c17 -14 28 -36 32 -63 4 -35 1 -45 -26 -76 -27 -31 -29 -37 -16 -48
13 -11 18 -10 30 6 8 10 15 22 15 27 0 4 20 7 45 7 l44 0 -32 -59 -32 -60 35
-35 34 -36 -27 -27 -27 -27 -27 26 -28 26 -30 -24 c-60 -48 -161 -20 -191 53
-20 48 -11 93 27 134 29 31 29 33 15 63 -19 41 -10 81 26 111 39 33 97 34 133
2z m355 8 c58 -30 78 -120 40 -182 -24 -39 -41 -49 -107 -58 l-53 -7 0 -74 0
-74 -45 0 -45 0 0 205 0 205 90 0 c62 0 100 -5 120 -15z m-580 -30 c0 -33 -2
-35 -35 -35 l-35 0 0 -160 0 -160 -40 0 -40 0 0 160 0 160 -40 0 c-39 0 -40 1
-40 35 l0 35 115 0 115 0 0 -35z"/>
<path d="M1095 1269 c-11 -16 4 -59 20 -59 18 0 37 34 29 54 -7 18 -39 21 -49
5z"/>
<path d="M1070 1103 c-29 -21 -23 -63 12 -83 26 -14 29 -13 49 7 l22 22 -30
35 c-29 32 -32 33 -53 19z"/>
<path d="M1420 1220 c0 -48 1 -50 28 -50 37 0 72 26 72 54 0 32 -19 46 -62 46
l-38 0 0 -50z"/>
</g>
</svg>
